<svg width="18" height="18" viewBox="0 0 18 18" fill="none" xmlns="http://www.w3.org/2000/svg">
<path d="M7.70259 2.14551C7.84275 2.1255 7.97761 2.07808 8.09944 2.00595C8.22128 1.93383 8.32772 1.83841 8.41268 1.72515C8.49765 1.61188 8.55947 1.483 8.59462 1.34584C8.62977 1.20869 8.63757 1.06596 8.61756 0.925791C8.59755 0.785625 8.55012 0.650773 8.478 0.528935C8.40587 0.407096 8.31045 0.300657 8.19719 0.215694C8.08393 0.130732 7.95504 0.0689091 7.81789 0.0337571C7.68074 -0.001395 7.538 -0.00918839 7.39784 0.0108218C5.81308 0.238851 4.32306 0.90342 3.09453 1.93015C1.86601 2.95687 0.947463 4.30524 0.441703 5.82434C-0.0640566 7.34343 -0.137071 8.97331 0.230831 10.5315C0.598732 12.0898 1.39303 13.5149 2.52483 14.6473C3.65663 15.7798 5.08126 16.5749 6.63928 16.9438C8.19729 17.3126 9.82721 17.2405 11.3466 16.7357C12.866 16.2308 14.2149 15.313 15.2424 14.0851C16.2698 12.8572 16.9353 11.3676 17.1642 9.78295C17.2046 9.49987 17.1309 9.21233 16.9593 8.98359C16.7878 8.75485 16.5323 8.60364 16.2492 8.56323C15.9662 8.52282 15.6786 8.59651 15.4499 8.7681C15.2211 8.93969 15.0699 9.19512 15.0295 9.4782C14.8574 10.6665 14.3581 11.7835 13.5874 12.7041C12.8166 13.6248 11.8049 14.3129 10.6654 14.6913C9.52589 15.0697 8.30356 15.1236 7.13518 14.8469C5.96679 14.5703 4.89845 13.9739 4.04968 13.1246C3.2009 12.2754 2.60519 11.2067 2.3292 10.0381C2.0532 8.86959 2.10781 7.64729 2.48692 6.50801C2.86602 5.36873 3.55466 4.35742 4.47579 3.58722C5.39691 2.81702 6.51418 2.3169 7.70259 2.14551ZM11.5019 0.414759C11.2322 0.319447 10.9356 0.33519 10.6775 0.458524C10.4194 0.581859 10.2208 0.802682 10.1255 1.07242C10.0302 1.34215 10.0459 1.6387 10.1693 1.89682C10.2926 2.15495 10.5134 2.35351 10.7832 2.44882C11.2173 2.60216 11.6274 2.79766 12.0137 3.03532C12.1342 3.11387 12.2693 3.16748 12.4109 3.19299C12.5526 3.21851 12.6979 3.21541 12.8383 3.18389C12.9787 3.15236 13.1114 3.09305 13.2285 3.00944C13.3456 2.92583 13.4448 2.81962 13.5202 2.69707C13.5957 2.57452 13.6458 2.43811 13.6677 2.29588C13.6896 2.15364 13.6828 2.00847 13.6476 1.86892C13.6125 1.72936 13.5498 1.59824 13.4633 1.4833C13.3767 1.36835 13.268 1.2719 13.1435 1.19963C12.6255 0.880858 12.0753 0.617769 11.5019 0.414759ZM15.9797 4.03726C15.9074 3.91282 15.811 3.8041 15.696 3.71752C15.5811 3.63094 15.45 3.56825 15.3104 3.53314C15.1709 3.49803 15.0257 3.49122 14.8835 3.5131C14.7412 3.53498 14.6048 3.58511 14.4823 3.66054C14.3597 3.73597 14.2535 3.83518 14.1699 3.9523C14.0863 4.06943 14.027 4.2021 13.9955 4.34251C13.9639 4.48292 13.9608 4.62822 13.9864 4.76985C14.0119 4.91147 14.0655 5.04655 14.144 5.16713C14.3807 5.55047 14.5753 5.95776 14.7277 6.38901C14.8263 6.65412 15.0252 6.86984 15.2815 6.98964C15.5377 7.10945 15.8308 7.12373 16.0975 7.02943C16.3642 6.93512 16.5831 6.73978 16.7071 6.48552C16.8311 6.23126 16.8502 5.93846 16.7603 5.67026C16.5581 5.10006 16.2965 4.55271 15.9797 4.03726ZM8.6269 5.3152C8.6269 5.02926 8.51331 4.75504 8.31112 4.55285C8.10894 4.35066 7.83471 4.23707 7.54878 4.23707C7.26284 4.23707 6.98861 4.35066 6.78643 4.55285C6.58424 4.75504 6.47065 5.02926 6.47065 5.3152V9.6277C6.47065 10.2228 6.95365 10.7058 7.54878 10.7058H10.4238C10.7097 10.7058 10.9839 10.5922 11.1861 10.39C11.3883 10.1879 11.5019 9.91363 11.5019 9.6277C11.5019 9.34176 11.3883 9.06754 11.1861 8.86535C10.9839 8.66316 10.7097 8.54957 10.4238 8.54957H8.6269V5.3152Z" fill="white"/>
</svg>