<svg width="28" height="29" viewBox="0 0 28 29" fill="none" xmlns="http://www.w3.org/2000/svg">
<path d="M12.2708 0C10.3867 0 8.57972 0.772617 7.24743 2.14788C5.91514 3.52315 5.16667 5.38841 5.16667 7.33333C5.16667 9.27825 5.91514 11.1435 7.24743 12.5188C8.57972 13.8941 10.3867 14.6667 12.2708 14.6667C14.155 14.6667 15.9619 13.8941 17.2942 12.5188C18.6265 11.1435 19.375 9.27825 19.375 7.33333C19.375 5.38841 18.6265 3.52315 17.2942 2.14788C15.9619 0.772617 14.155 0 12.2708 0ZM22.6042 14.3333V16.168C23.5277 16.4133 24.3505 16.9147 24.9989 17.5973L26.5386 16.6787L27.8302 18.988L26.2919 19.9053C26.5434 20.8396 26.5434 21.827 26.2919 22.7613L27.8302 23.6787L26.5386 25.988L24.9989 25.0693C24.3414 25.7616 23.5134 26.2558 22.6042 26.4987V28.3333H20.0208V26.4987C19.1116 26.2558 18.2836 25.7616 17.6261 25.0693L16.0851 25.988L14.7935 23.6787L16.3331 22.7613C16.0816 21.827 16.0816 20.8396 16.3331 19.9053L14.7935 18.988L16.0851 16.6787L17.6261 17.596C18.2838 16.9042 19.1117 16.4105 20.0208 16.168V14.3333H22.6042ZM19.0508 20.044C18.8393 20.4387 18.7281 20.8823 18.7279 21.3333C18.7279 21.8 18.8454 22.24 19.0508 22.6227L19.0973 22.7067C19.3268 23.1015 19.6515 23.4283 20.0397 23.6552C20.4279 23.8821 20.8664 24.0014 21.3125 24.0014C21.7586 24.0014 22.1971 23.8821 22.5853 23.6552C22.9735 23.4283 23.2982 23.1015 23.5277 22.7067L23.5742 22.6227C23.7796 22.24 23.8958 21.8013 23.8958 21.3333C23.8958 20.8667 23.7796 20.4267 23.5742 20.044L23.5264 19.96C23.2968 19.5654 22.9722 19.2389 22.5841 19.0122C22.1961 18.7855 21.7578 18.6664 21.3119 18.6664C20.866 18.6664 20.4277 18.7855 20.0396 19.0122C19.6515 19.2389 19.3269 19.5654 19.0973 19.96L19.0508 20.044ZM14.2884 16C13.1848 17.5445 12.5907 19.4141 12.5937 21.3333C12.5907 23.2526 13.1848 25.1221 14.2884 26.6667H0V24C0 21.8783 0.816515 19.8434 2.26992 18.3431C3.72333 16.8429 5.69457 16 7.75 16H14.2884Z" fill="#647D90"/>
</svg>